<?xml version="1.0" standalone="no"?>
<!DOCTYPE svg PUBLIC "-//W3C//DTD SVG 20010904//EN"
 "http://www.w3.org/TR/2001/REC-SVG-20010904/DTD/svg10.dtd">
<svg version="1.0" xmlns="http://www.w3.org/2000/svg"
 width="225.000000pt" height="225.000000pt" viewBox="0 0 225.000000 225.000000"
 preserveAspectRatio="xMidYMid meet">

<g transform="translate(0.000000,225.000000) scale(0.100000,-0.100000)"
fill="#000000" stroke="none">
<path d="M916 2204 c-442 -87 -787 -435 -871 -877 -19 -102 -19 -302 0 -404
84 -445 433 -794 878 -878 102 -19 302 -19 404 0 445 84 794 433 878 878 19
102 19 302 0 404 -84 445 -433 794 -878 878 -98 19 -316 18 -411 -1z m247 -91
l22 -38 3 33 c5 53 22 36 22 -23 0 -30 -4 -55 -10 -55 -5 0 -21 17 -35 37
l-25 38 0 -38 c0 -20 -4 -37 -10 -37 -6 0 -10 27 -10 60 0 35 4 60 10 60 6 0
21 -17 33 -37z m-81 10 c39 -35 7 -98 -48 -91 -18 2 -34 13 -43 29 -13 24 -13
29 2 53 20 30 61 35 89 9z m231 -43 c12 -48 12 -60 2 -60 -7 0 -15 7 -19 15
-6 17 -46 21 -46 5 0 -5 -7 -10 -15 -10 -8 0 -15 3 -15 6 0 17 55 104 65 104
7 0 19 -27 28 -60z m-349 13 c4 -21 9 -46 12 -55 3 -11 0 -18 -9 -18 -9 0 -17
19 -24 55 -7 42 -7 55 3 55 6 0 15 -17 18 -37z m-44 17 c0 -5 -7 -10 -16 -10
-14 0 -16 -8 -10 -50 9 -64 -9 -67 -25 -5 -10 38 -15 45 -30 40 -13 -4 -19 -1
-19 9 0 14 22 21 78 25 12 0 22 -3 22 -9z m466 -27 c-4 -16 -9 -35 -12 -44 -3
-12 3 -19 21 -23 14 -4 25 -13 25 -21 0 -11 -6 -12 -32 -3 -48 16 -50 20 -32
71 17 51 41 66 30 20z m-563 -41 c20 -26 32 -49 26 -51 -6 -2 -15 1 -21 7 -15
15 -45 3 -52 -21 -9 -37 -20 -9 -17 46 4 83 11 85 64 19z m710 22 c3 -4 -3
-25 -14 -47 -17 -32 -18 -41 -7 -48 22 -14 27 -11 48 31 22 44 46 47 30 4 -25
-65 -46 -78 -91 -54 -23 13 -24 22 -3 77 16 42 24 50 37 37z m-808 -64 c28
-56 20 -64 -35 -35 -33 17 -36 14 -19 -17 6 -11 7 -24 2 -29 -4 -4 -20 15 -35
42 -30 57 -21 71 31 44 28 -14 46 -5 21 10 -5 3 -10 13 -10 21 0 29 20 13 45
-36z m925 -40 l5 -43 14 26 c8 15 21 27 29 27 10 0 8 -9 -9 -37 -12 -21 -28
-44 -35 -52 -16 -17 -21 -7 -26 49 l-4 35 -13 -27 c-12 -23 -41 -40 -41 -23 0
14 57 94 65 92 5 -2 12 -23 15 -47z m-1106 -30 l-7 -40 37 0 c20 0 36 -4 36
-10 0 -5 -15 -10 -34 -10 -29 0 -33 -3 -29 -20 9 -33 -12 -23 -45 24 -32 45
-33 69 0 39 17 -15 18 -15 18 14 0 30 7 43 22 43 4 0 5 -18 2 -40z m786 9
c296 -75 531 -311 611 -614 15 -60 21 -110 21 -200 0 -90 -6 -140 -21 -200
-80 -305 -311 -536 -616 -616 -111 -29 -289 -29 -400 0 -305 80 -536 311 -616
616 -29 111 -29 289 0 400 120 456 571 727 1021 614z m413 5 c8 -8 -50 -94
-63 -94 -15 0 -12 9 18 56 27 44 33 49 45 38z m24 -79 c-18 -38 -15 -42 23
-20 29 17 50 19 50 5 0 -10 -84 -50 -106 -50 -19 0 -18 8 8 69 14 36 24 49 31
42 8 -8 6 -22 -6 -46z m-1257 -54 c0 -20 -30 -51 -49 -51 -16 0 -81 58 -81 72
0 17 30 7 48 -17 11 -14 27 -25 35 -25 30 0 29 22 -2 54 -17 18 -28 35 -24 39
9 10 73 -53 73 -72z m1400 -33 c0 -14 -27 -9 -40 7 -7 8 -17 15 -23 15 -5 0
-2 -9 7 -19 24 -27 11 -48 -15 -25 -28 25 -36 8 -10 -20 12 -13 18 -26 13 -30
-5 -3 -22 8 -37 24 l-29 30 39 40 39 40 28 -27 c15 -15 28 -30 28 -35z m-1512
-14 c38 -32 39 -40 9 -76 l-22 -28 -42 33 c-23 17 -42 35 -43 38 0 9 48 59 58
59 4 0 23 -12 40 -26z m1567 -55 c15 -28 15 -30 -12 -55 -54 -50 -81 -52 -51
-4 16 25 -4 52 -24 32 -16 -16 -28 -15 -28 1 0 14 81 68 92 61 5 -3 15 -19 23
-35z m-1635 -35 c22 -15 40 -30 40 -34 0 -4 -18 -10 -41 -14 l-41 -6 24 -19
c13 -11 20 -22 16 -26 -9 -10 -99 47 -95 60 2 6 23 12 48 15 43 5 43 5 16 17
-26 12 -37 33 -17 33 6 0 28 -12 50 -26z m1688 -56 c15 -15 16 -54 2 -63 -6
-3 -10 5 -10 19 0 43 -19 38 -22 -6 -2 -35 -7 -44 -25 -46 -28 -4 -56 44 -42
71 14 24 27 13 21 -18 -3 -18 0 -25 12 -25 12 0 15 6 10 25 -3 14 -4 32 0 40
7 18 37 20 54 3z m-1734 -54 c22 -21 20 -57 -3 -78 -48 -44 -122 15 -87 70 19
28 66 33 90 8z m1780 -33 c5 -8 -12 -17 -91 -48 -30 -12 -10 18 25 36 41 22
58 25 66 12z m45 -108 c1 -18 -16 -16 -27 2 -7 14 -12 14 -45 0 -43 -18 -47
-18 -47 -4 0 6 18 18 40 26 22 9 37 20 34 25 -3 5 -3 17 1 26 6 13 11 9 25
-23 10 -22 19 -46 19 -52z m-1929 43 c0 -3 -4 -16 -10 -30 -7 -21 -6 -26 5
-26 9 0 15 9 15 21 0 12 5 19 13 16 6 -2 11 -13 9 -25 -5 -32 16 -35 23 -3 4
20 11 28 20 25 11 -5 11 -12 2 -39 -14 -39 -17 -40 -74 -24 -45 12 -49 21 -33
63 8 22 30 37 30 22z m1940 -71 c0 -3 -7 -16 -15 -29 -14 -21 -14 -23 10 -34
14 -6 25 -16 25 -22 0 -13 -2 -13 -37 1 -15 7 -40 11 -55 10 -15 -1 -29 3 -33
9 -3 5 1 10 9 10 9 0 30 13 48 30 31 28 48 37 48 25z m-1905 -55 c28 -23 11
-70 -24 -70 -11 0 -11 4 3 19 24 26 15 37 -34 45 -54 8 -54 30 0 23 23 -3 47
-11 55 -17z m-25 -219 c7 -27 7 -47 -1 -70 -14 -40 -25 -39 -39 4 -9 26 -9 44
0 70 15 45 27 44 40 -4z m1910 4 c9 -26 9 -44 0 -70 -14 -43 -25 -44 -39 -4
-12 34 1 109 19 109 4 0 14 -16 20 -35z m-1965 -115 l40 -39 19 28 c11 16 28
34 39 40 17 11 18 10 12 -11 -12 -40 -55 -108 -69 -108 -15 0 -47 34 -75 80
-38 63 -24 67 34 10z m1921 -11 l19 -28 42 41 c24 23 45 39 49 36 14 -15 -66
-128 -91 -128 -15 0 -58 67 -70 108 -6 21 -5 22 12 11 11 -6 28 -24 39 -40z
m-1811 -114 c-25 -67 -39 -74 -81 -39 -39 32 -82 94 -66 94 6 0 30 -15 54 -33
l43 -33 30 45 c22 36 30 42 33 27 2 -10 -4 -38 -13 -61z m1790 21 l18 -33 44
33 c56 43 71 43 45 2 -27 -44 -87 -92 -102 -83 -17 10 -50 85 -50 114 0 30 19
16 45 -33z m-1764 -127 c-17 -58 -32 -64 -77 -30 -47 33 -82 81 -61 81 8 0 33
-14 55 -30 25 -18 42 -25 42 -18 0 7 10 29 22 48 22 34 22 34 26 10 2 -13 -1
-41 -7 -61z m1740 26 l12 -32 42 29 c24 17 48 29 54 27 15 -5 -39 -69 -77 -92
-31 -17 -31 -17 -48 8 -9 14 -19 47 -22 73 -5 43 -4 46 11 34 9 -8 22 -29 28
-47z m-1694 -79 c-3 -30 -10 -63 -16 -75 -10 -17 -15 -18 -40 -10 -37 13 -109
74 -99 84 4 5 29 -3 55 -17 l48 -24 22 48 c12 26 25 48 29 48 4 0 4 -24 1 -54z
m1655 -12 l11 -31 49 25 c26 14 52 22 56 18 10 -11 -62 -72 -99 -85 -25 -8
-30 -7 -40 10 -6 12 -13 46 -15 77 -5 53 -4 56 10 37 9 -10 21 -33 28 -51z
m-1610 -121 c-8 -35 -11 -38 -41 -36 -33 1 -111 48 -111 65 0 12 42 3 82 -17
25 -12 27 -11 33 14 3 14 11 39 17 56 l12 29 8 -37 c4 -20 4 -54 0 -74z m1559
41 c11 -41 11 -41 37 -28 40 19 82 28 82 16 0 -17 -78 -64 -111 -65 -30 -2
-33 1 -40 33 -10 44 0 118 13 98 4 -7 13 -32 19 -54z m-1501 -103 l0 -64 -42
7 c-44 7 -108 41 -108 57 0 12 9 11 63 -5 l45 -14 7 37 c3 20 9 44 12 55 10
35 23 -5 23 -73z m1445 23 l6 -42 46 14 c54 16 63 17 63 5 0 -16 -64 -50 -108
-57 l-42 -7 0 61 c0 103 19 118 35 26z m-1375 -108 l0 -49 -49 5 c-27 3 -64
15 -83 27 l-33 23 63 -5 62 -5 0 31 c0 18 3 43 7 57 l7 25 12 -30 c7 -17 13
-52 14 -79z m1309 32 l1 -36 63 5 62 5 -33 -23 c-19 -12 -56 -24 -83 -27 l-49
-5 0 45 c0 25 5 60 12 78 10 30 12 32 19 14 4 -10 8 -35 8 -56z m-1250 -40 c9
-32 14 -69 12 -95 -2 -20 -80 -15 -126 7 l-40 19 65 -2 65 -2 -3 53 c-4 59 11
70 27 20z m1179 -20 l-3 -53 65 2 65 2 -40 -19 c-26 -13 -56 -19 -85 -17 -45
2 -45 2 -42 37 4 49 22 100 34 100 6 0 8 -21 6 -52z m-1044 -139 c-15 -27 -33
-49 -41 -49 -17 0 -17 3 8 44 20 34 20 36 3 36 -22 0 -7 16 21 22 35 8 36 -2
9 -53z m929 0 l42 -40 -32 6 c-29 6 -34 3 -43 -19 -15 -41 -28 -31 -32 27 -7
82 3 86 65 26z m-825 9 c22 -22 5 -91 -26 -103 -25 -9 -52 5 -52 27 0 20 1 20
18 5 10 -10 21 -14 25 -11 3 4 -4 14 -16 24 -19 15 -20 21 -9 44 12 28 40 34
60 14z m712 -8 c0 -6 -12 -15 -26 -20 -14 -6 -22 -14 -19 -20 4 -7 13 -6 26 1
12 6 23 8 26 5 8 -8 -7 -26 -23 -26 -8 0 -14 -7 -14 -15 0 -18 1 -18 34 -5 18
6 26 6 26 -1 0 -11 -61 -40 -71 -33 -4 2 -14 24 -23 49 l-15 45 32 14 c40 18
47 19 47 6z m-607 -47 c-4 -16 -7 -37 -7 -48 0 -19 -18 -45 -30 -45 -3 0 -6 6
-6 14 0 8 -9 18 -20 21 -28 9 -25 24 13 56 42 37 60 37 50 2z m105 1 c8 -2 3
-17 -18 -45 -16 -23 -30 -48 -30 -56 0 -7 -4 -13 -8 -13 -21 0 -20 17 3 57 25
42 25 43 5 43 -11 0 -20 6 -20 14 0 12 28 13 68 0z m401 -2 c5 -10 6 -24 1
-32 -5 -9 -1 -19 13 -31 l22 -18 -21 -1 c-12 0 -27 7 -34 15 -19 23 -31 18
-24 -11 5 -20 3 -25 -7 -22 -7 2 -18 25 -25 51 l-12 47 32 9 c44 13 44 13 55
-7z m-229 -19 c0 -3 -7 -14 -16 -24 -15 -17 -14 -20 6 -48 17 -25 18 -31 6
-31 -8 0 -20 9 -26 20 -6 11 -15 20 -20 20 -6 0 -10 -9 -10 -20 0 -11 -7 -20
-15 -20 -11 0 -15 12 -15 50 0 38 4 50 15 50 8 0 15 -8 15 -17 0 -15 3 -14 22
5 22 22 38 28 38 15z m120 -12 c14 -28 12 -52 -7 -73 -20 -22 -46 -23 -67 -2
-19 18 -21 65 -4 82 19 19 66 15 78 -7z"/>
<path d="M1023 2113 c-21 -8 -15 -51 7 -58 27 -8 40 1 40 30 0 17 -21 40 -33
34 -1 0 -8 -3 -14 -6z"/>
<path d="M1270 2080 c0 -5 5 -10 10 -10 6 0 10 5 10 10 0 6 -4 10 -10 10 -5 0
-10 -4 -10 -10z"/>
<path d="M780 2036 c0 -9 5 -16 10 -16 6 0 10 4 10 9 0 6 -4 13 -10 16 -5 3
-10 -1 -10 -9z"/>
<path d="M1015 1930 c-332 -52 -589 -282 -676 -605 -45 -166 -24 -382 51 -542
78 -168 225 -315 391 -393 212 -99 475 -99 686 0 218 102 380 297 444 535 30
112 30 288 0 400 -78 291 -298 511 -584 584 -93 24 -230 33 -312 21z m45 -313
c0 -79 -3 -185 -6 -235 -7 -88 -8 -92 -30 -92 -28 0 -28 -1 -15 272 8 160 16
198 42 198 5 0 9 -65 9 -143z m159 129 c7 -9 15 -87 21 -203 13 -271 14 -253
-15 -253 -14 0 -26 6 -26 13 -1 6 -4 112 -8 235 -6 224 -3 246 28 208z m-236
-233 c-6 -109 -12 -204 -12 -210 -1 -7 -12 -13 -26 -13 -30 0 -30 1 -11 234
11 134 16 161 31 173 11 7 21 13 24 13 3 0 1 -89 -6 -197z m301 184 c15 -11
20 -42 32 -183 19 -231 19 -224 -10 -224 -29 0 -32 19 -41 225 -3 77 -8 152
-11 168 -6 30 3 34 30 14z m-375 -199 c-10 -90 -18 -173 -18 -185 -1 -19 -7
-23 -32 -23 -24 0 -29 4 -25 18 2 9 12 84 22 166 15 121 22 153 38 168 11 10
23 18 26 18 3 0 -2 -73 -11 -162z m445 147 c15 -12 23 -46 41 -185 l22 -170
-29 0 c-15 0 -28 5 -28 10 0 14 -28 285 -34 328 -5 35 0 38 28 17z m-254 -423
l0 -38 -64 0 c-36 1 -70 -4 -75 -9 -6 -6 -17 -60 -26 -120 -9 -61 -18 -120
-20 -132 -5 -22 -3 -23 65 -23 39 0 86 -7 108 -15 34 -14 42 -14 75 0 21 9 66
15 107 15 68 0 70 1 65 23 -2 12 -11 71 -20 132 -9 60 -20 114 -26 120 -5 5
-39 10 -75 9 l-64 0 0 38 0 38 200 0 200 0 0 -60 c0 -52 -2 -60 -19 -60 -16 0
-20 -10 -26 -52 -15 -121 -59 -225 -131 -314 l-33 -40 47 -17 c26 -9 54 -17
62 -17 31 0 41 -15 30 -44 -9 -26 -13 -28 -48 -21 -20 3 -61 17 -91 31 -52 23
-54 24 -80 5 -14 -10 -45 -28 -68 -40 l-43 -21 0 47 c0 46 2 49 50 81 27 17
65 53 84 80 l35 47 -24 8 c-28 10 -124 -7 -150 -27 -15 -11 -24 -10 -54 4 -46
23 -111 33 -138 23 -21 -8 -21 -9 13 -55 19 -27 57 -63 84 -80 48 -32 50 -35
50 -81 l0 -47 -42 21 c-24 12 -55 30 -69 40 -26 19 -28 18 -80 -5 -30 -14 -71
-28 -91 -31 -35 -7 -39 -5 -48 21 -11 29 -1 44 30 44 8 0 36 8 62 17 l47 17
-33 40 c-72 89 -116 193 -131 314 -6 42 -10 52 -26 52 -17 0 -19 8 -19 60 l0
60 200 0 200 0 0 -38z m-10 -65 c28 -10 43 -10 77 1 57 19 111 9 118 -21 8
-40 25 -165 25 -189 0 -21 -5 -23 -53 -25 -28 -1 -70 -8 -92 -16 -34 -12 -46
-12 -80 0 -22 8 -64 15 -92 16 -48 2 -53 4 -53 25 0 23 17 149 25 189 7 33 62
41 125 20z m-220 -411 c0 -13 -28 -5 -34 10 -14 35 -6 47 14 21 11 -14 20 -28
20 -31z m546 19 c-4 -14 -13 -25 -21 -25 -19 0 -19 6 3 35 21 28 27 25 18 -10z
m-456 -144 c10 -35 5 -38 -22 -14 -21 19 -23 39 -5 46 16 6 16 5 27 -32z m368
11 c-2 -8 -13 -21 -25 -29 -22 -15 -22 -14 -13 18 6 19 10 35 10 36 0 1 7 0
15 -4 9 -3 15 -12 13 -21z m-265 -48 c21 -20 48 -34 62 -34 14 0 41 14 62 34
51 45 83 61 83 43 0 -25 -44 -80 -80 -98 -66 -35 -143 -14 -187 51 -48 70 -17
72 60 4z"/>
<path d="M341 1746 c-8 -9 -8 -16 -2 -20 6 -4 15 3 21 14 12 23 -2 27 -19 6z"/>
<path d="M381 1726 c-8 -9 -11 -19 -7 -23 9 -9 29 13 24 27 -2 8 -8 7 -17 -4z"/>
<path d="M1922 1699 c2 -7 10 -15 17 -17 8 -3 12 1 9 9 -2 7 -10 15 -17 17 -8
3 -12 -1 -9 -9z"/>
<path d="M219 1544 c-15 -18 -2 -47 24 -52 22 -5 42 35 26 54 -15 18 -33 18
-50 -2z"/>
<path d="M1570 276 c0 -9 5 -16 10 -16 6 0 10 4 10 9 0 6 -4 13 -10 16 -5 3
-10 -1 -10 -9z"/>
<path d="M754 266 c-8 -22 3 -33 18 -18 9 9 9 15 0 24 -9 9 -13 7 -18 -6z"/>
<path d="M846 211 c-4 -7 -5 -15 -2 -18 9 -9 19 4 14 18 -4 11 -6 11 -12 0z"/>
<path d="M1340 210 c0 -5 9 -10 20 -10 11 0 20 5 20 10 0 6 -9 10 -20 10 -11
0 -20 -4 -20 -10z"/>
<path d="M1227 193 c-12 -12 -7 -40 9 -54 14 -11 18 -11 29 4 17 23 8 57 -14
57 -10 0 -21 -3 -24 -7z"/>
</g>
</svg>
